<svg width="70" height="80" viewBox="0 0 70 80" fill="none" xmlns="http://www.w3.org/2000/svg">
<path d="M55.4658 0.887375H27.2893H25.1082L23.5655 2.32449L2.23306 22.196L0.690369 23.6332V25.6662V66.6341C0.690369 73.9416 7.07164 79.8874 14.9173 79.8874H55.4658C63.3089 79.8874 69.6904 73.9416 69.6904 66.6341V14.1408C69.6904 6.83211 63.3089 0.887375 55.4658 0.887375ZM64.4238 66.6339C64.4238 71.2438 60.4132 74.98 55.4658 74.98H14.9173C9.96986 74.98 5.95926 71.2438 5.95926 66.6339V25.666H19.8254C23.947 25.666 27.2893 22.5526 27.2893 18.7119V5.79462H55.4658C60.4132 5.79462 64.4238 9.53076 64.4238 14.1408V66.6339Z" fill="#EC6907"/>
<path d="M23.5475 51H13.8503V48.561H14.7658V43.251H13.8503V40.812H19.673V43.251H18.7062V48.561H21.1159V46.9277H23.5475V51ZM28.1618 47.4258C28.1618 48.5586 28.5671 49.125 29.3776 49.125C30.237 49.125 30.6667 48.5537 30.6667 47.4111C30.6667 46.8887 30.5617 46.4834 30.3517 46.1953C30.1369 45.9072 29.8342 45.7632 29.4435 45.7632C29.0578 45.7632 28.7477 45.9048 28.5134 46.188C28.279 46.4712 28.1618 46.8838 28.1618 47.4258ZM24.4338 47.4111C24.4338 46.3662 24.8732 45.4849 25.7521 44.7671C26.631 44.0493 27.8176 43.6904 29.3117 43.6904C30.8156 43.6904 32.0387 44.0371 32.9811 44.7305C33.9235 45.4238 34.3947 46.3271 34.3947 47.4404C34.3947 48.5146 33.9455 49.4106 33.047 50.1284C32.1486 50.8462 30.9621 51.2051 29.4875 51.2051C27.8957 51.2051 26.6554 50.8462 25.7668 50.1284C24.8781 49.4155 24.4338 48.5098 24.4338 47.4111ZM39.2653 47.4917C39.2653 47.9263 39.3752 48.2876 39.5949 48.5757C39.8146 48.8687 40.1271 49.0151 40.5324 49.0151C40.9621 49.0151 41.2819 48.8662 41.4919 48.5684C41.7018 48.2803 41.8068 47.9165 41.8068 47.4771C41.8068 46.9985 41.6945 46.6104 41.4699 46.3125C41.2404 46.0098 40.9328 45.8584 40.547 45.8584C40.132 45.8584 39.8146 46.0171 39.5949 46.3345C39.3752 46.647 39.2653 47.0327 39.2653 47.4917ZM36.1525 53.6294L37.1633 51.8276C37.7345 52.0669 38.5011 52.1865 39.4631 52.1865C40.0978 52.1865 40.5934 52.0962 40.9499 51.9155C41.3112 51.7397 41.5431 51.5322 41.6457 51.293C41.7433 51.0537 41.7922 50.7144 41.7922 50.2749C41.0549 50.646 40.2321 50.8315 39.3239 50.8315C38.2643 50.8315 37.3708 50.5288 36.6432 49.9233C35.9059 49.3228 35.5373 48.4902 35.5373 47.4258C35.5373 46.3027 35.9206 45.4116 36.6872 44.7524C37.4489 44.0933 38.3717 43.7637 39.4557 43.7637C40.3444 43.7637 41.1232 43.959 41.7922 44.3496V43.8955H46.3478V46.1294H45.4616V50.0259C45.4616 50.895 45.3835 51.564 45.2272 52.0327C45.0661 52.5015 44.778 52.9019 44.363 53.2339C43.9479 53.5806 43.4279 53.8296 42.8029 53.981C42.1828 54.1421 41.36 54.2227 40.3346 54.2227C39.8757 54.2227 39.4655 54.208 39.1042 54.1787C38.7477 54.1494 38.3376 54.1006 37.8737 54.0322C37.0827 53.9053 36.509 53.771 36.1525 53.6294ZM50.8376 47.4258C50.8376 48.5586 51.2428 49.125 52.0534 49.125C52.9128 49.125 53.3425 48.5537 53.3425 47.4111C53.3425 46.8887 53.2375 46.4834 53.0275 46.1953C52.8127 45.9072 52.5099 45.7632 52.1193 45.7632C51.7336 45.7632 51.4235 45.9048 51.1891 46.188C50.9548 46.4712 50.8376 46.8838 50.8376 47.4258ZM47.1095 47.4111C47.1095 46.3662 47.549 45.4849 48.4279 44.7671C49.3068 44.0493 50.4933 43.6904 51.9875 43.6904C53.4914 43.6904 54.7145 44.0371 55.6569 44.7305C56.5993 45.4238 57.0705 46.3271 57.0705 47.4404C57.0705 48.5146 56.6213 49.4106 55.7228 50.1284C54.8244 50.8462 53.6379 51.2051 52.1633 51.2051C50.5715 51.2051 49.3312 50.8462 48.4426 50.1284C47.5539 49.4155 47.1095 48.5098 47.1095 47.4111Z" fill="#EC6907"/>
</svg>
